<svg xmlns="http://www.w3.org/2000/svg" style="display:none" aria-hidden="true">
  <defs>
    <filter id="wc-soft" x="-20%" y="-20%" width="140%" height="140%">
      <feGaussianBlur in="SourceGraphic" stdDeviation="0.6" result="blur"/>
      <feColorMatrix in="blur" type="matrix"
        values="1 0 0 0 0  0 1 0 0 0  0 0 1 0 0  0 0 0 0.92 0"/>
    </filter>
    <filter id="wc-bleed" x="-30%" y="-30%" width="160%" height="160%">
      <feGaussianBlur in="SourceGraphic" stdDeviation="1.2"/>
    </filter>
    <linearGradient id="lg-lemon" x1="0%" y1="0%" x2="100%" y2="100%">
      <stop offset="0%" stop-color="#FFF6A8"/>
      <stop offset="45%" stop-color="#F5D547"/>
      <stop offset="100%" stop-color="#E8B830"/>
    </linearGradient>
    <linearGradient id="lg-lemon-d" x1="0%" y1="0%" x2="100%" y2="100%">
      <stop offset="0%" stop-color="#F8E870"/>
      <stop offset="100%" stop-color="#D4A820"/>
    </linearGradient>
    <linearGradient id="lg-leaf" x1="0%" y1="0%" x2="100%" y2="100%">
      <stop offset="0%" stop-color="#A8B87A"/>
      <stop offset="100%" stop-color="#6B7A52"/>
    </linearGradient>
    <linearGradient id="lg-leaf-l" x1="0%" y1="0%" x2="100%" y2="0%">
      <stop offset="0%" stop-color="#C5D4A0"/>
      <stop offset="100%" stop-color="#8B9A6B"/>
    </linearGradient>
    <radialGradient id="rg-rose" cx="40%" cy="35%" r="60%">
      <stop offset="0%" stop-color="#FFFFFF"/>
      <stop offset="70%" stop-color="#F5EDE8"/>
      <stop offset="100%" stop-color="#E8D8D0"/>
    </radialGradient>
    <radialGradient id="rg-blossom" cx="50%" cy="50%" r="50%">
      <stop offset="0%" stop-color="#FFFFFF"/>
      <stop offset="100%" stop-color="#FFF8F0"/>
    </radialGradient>
  </defs>

  <!-- Corner: lemon branch top-left -->
  <symbol id="branch-tl" viewBox="0 0 200 200">
    <g filter="url(#wc-soft)">
      <ellipse cx="55" cy="95" rx="22" ry="20" fill="url(#lg-lemon)" transform="rotate(-15 55 95)"/>
      <ellipse cx="48" cy="88" rx="8" ry="6" fill="#FFFACD" opacity="0.7" transform="rotate(-15 48 88)"/>
      <ellipse cx="80" cy="70" rx="18" ry="17" fill="url(#lg-lemon-d)" transform="rotate(20 80 70)"/>
      <ellipse cx="30" cy="120" rx="16" ry="15" fill="url(#lg-lemon)" transform="rotate(-30 30 120)"/>
      <path d="M90 50 Q70 80 55 95 Q40 110 30 120" stroke="#6B7A52" stroke-width="2.5" fill="none" opacity="0.5"/>
      <path d="M70 60 Q55 75 48 88" stroke="#8B9A6B" stroke-width="1.5" fill="none" opacity="0.4"/>
      <ellipse cx="100" cy="45" rx="18" ry="8" fill="url(#lg-leaf-l)" transform="rotate(-40 100 45)"/>
      <ellipse cx="75" cy="55" rx="22" ry="9" fill="url(#lg-leaf)" transform="rotate(-20 75 55)"/>
      <ellipse cx="60" cy="75" rx="20" ry="8" fill="url(#lg-leaf-l)" transform="rotate(10 60 75)"/>
      <ellipse cx="40" cy="100" rx="18" ry="7" fill="url(#lg-leaf)" transform="rotate(-10 40 100)"/>
      <ellipse cx="25" cy="130" rx="16" ry="7" fill="url(#lg-leaf-l)" transform="rotate(-35 25 130)"/>
      <circle cx="110" cy="38" r="5" fill="url(#rg-blossom)" opacity="0.9"/>
      <circle cx="107" cy="35" r="2" fill="#FFF"/>
      <circle cx="95" cy="52" r="4" fill="url(#rg-blossom)" opacity="0.85"/>
      <circle cx="68" cy="48" r="4.5" fill="url(#rg-blossom)" opacity="0.8"/>
    </g>
  </symbol>

  <!-- Corner: lemon branch top-right (mirrored) -->
  <symbol id="branch-tr" viewBox="0 0 200 200">
    <use href="#branch-tl" transform="scale(-1,1) translate(-200,0)"/>
  </symbol>

  <!-- Corner: bottom garland -->
  <symbol id="branch-bottom" viewBox="0 0 300 120">
    <g filter="url(#wc-soft)">
      <ellipse cx="60" cy="70" rx="20" ry="18" fill="url(#lg-lemon)" transform="rotate(10 60 70)"/>
      <ellipse cx="90" cy="55" rx="17" ry="16" fill="url(#lg-lemon-d)" transform="rotate(-5 90 55)"/>
      <ellipse cx="150" cy="80" rx="22" ry="20" fill="url(#lg-lemon)" transform="rotate(0 150 80)"/>
      <ellipse cx="150" cy="73" rx="8" ry="6" fill="#FFFACD" opacity="0.6"/>
      <ellipse cx="210" cy="55" rx="18" ry="17" fill="url(#lg-lemon-d)" transform="rotate(15 210 55)"/>
      <ellipse cx="240" cy="70" rx="20" ry="18" fill="url(#lg-lemon)" transform="rotate(-10 240 70)"/>
      <ellipse cx="120" cy="45" rx="16" ry="7" fill="url(#lg-leaf-l)" transform="rotate(-15 120 45)"/>
      <ellipse cx="170" cy="40" rx="20" ry="8" fill="url(#lg-leaf)" transform="rotate(5 170 40)"/>
      <ellipse cx="50" cy="50" rx="18" ry="7" fill="url(#lg-leaf)" transform="rotate(-25 50 50)"/>
      <ellipse cx="250" cy="50" rx="18" ry="7" fill="url(#lg-leaf-l)" transform="rotate(25 250 50)"/>
      <circle cx="130" cy="35" r="6" fill="url(#rg-rose)" opacity="0.85"/>
      <circle cx="127" cy="32" r="2.5" fill="#FFF" opacity="0.8"/>
      <circle cx="170" cy="30" r="5" fill="url(#rg-rose)" opacity="0.8"/>
      <circle cx="100" cy="38" r="4" fill="url(#rg-blossom)" opacity="0.9"/>
      <circle cx="200" cy="38" r="4" fill="url(#rg-blossom)" opacity="0.9"/>
      <ellipse cx="175" cy="65" rx="5" ry="7" fill="#7A6B8A" opacity="0.5" transform="rotate(15 175 65)"/>
      <ellipse cx="80" cy="60" rx="4" ry="6" fill="#8B9A6B" opacity="0.6" transform="rotate(-10 80 60)"/>
    </g>
  </symbol>

  <!-- Small olive sprig divider -->
  <symbol id="sprig-divider" viewBox="0 0 240 40">
    <g filter="url(#wc-soft)">
      <path d="M10 20 Q60 10 120 20 Q180 30 230 20" stroke="#8B9A6B" stroke-width="1.5" fill="none" opacity="0.4"/>
      <ellipse cx="40" cy="18" rx="12" ry="5" fill="url(#lg-leaf-l)" transform="rotate(-20 40 18)"/>
      <ellipse cx="80" cy="22" rx="14" ry="5" fill="url(#lg-leaf)" transform="rotate(15 80 22)"/>
      <ellipse cx="120" cy="16" rx="10" ry="8" fill="url(#lg-lemon)" transform="rotate(0 120 16)"/>
      <ellipse cx="160" cy="22" rx="13" ry="5" fill="url(#lg-leaf-l)" transform="rotate(-10 160 22)"/>
      <ellipse cx="200" cy="18" rx="12" ry="5" fill="url(#lg-leaf)" transform="rotate(20 200 18)"/>
      <circle cx="120" cy="12" r="3" fill="url(#rg-blossom)"/>
    </g>
  </symbol>

  <!-- Watercolor wine & lemon icon -->
  <symbol id="icon-wine" viewBox="0 0 80 80">
    <g filter="url(#wc-soft)">
      <ellipse cx="40" cy="62" rx="14" ry="5" fill="#8B9A6B" opacity="0.25"/>
      <path d="M32 20 L32 50 Q32 58 40 58 Q48 58 48 50 L48 20 Z" fill="#F5EDE8" stroke="#C4A882" stroke-width="0.8"/>
      <path d="M34 22 L34 48 Q34 54 40 54 Q46 54 46 48 L46 22 Z" fill="#8B2942" opacity="0.7"/>
      <rect x="36" y="14" width="8" height="8" rx="1" fill="#C4A882"/>
      <ellipse cx="58" cy="55" rx="12" ry="11" fill="url(#lg-lemon)" transform="rotate(15 58 55)"/>
      <ellipse cx="55" cy="52" rx="4" ry="3" fill="#FFFACD" opacity="0.6"/>
      <ellipse cx="62" cy="48" rx="10" ry="4" fill="url(#lg-leaf-l)" transform="rotate(-30 62 48)"/>
    </g>
  </symbol>

  <!-- Watercolor envelope icon -->
  <symbol id="icon-envelope" viewBox="0 0 80 80">
    <g filter="url(#wc-soft)">
      <rect x="14" y="22" width="52" height="36" rx="3" fill="#FFF9F0" stroke="#C4A882" stroke-width="1"/>
      <path d="M14 24 L40 44 L66 24" fill="none" stroke="#C4A882" stroke-width="1"/>
      <path d="M14 56 L30 40 M66 56 L50 40" fill="none" stroke="#C4A882" stroke-width="0.8" opacity="0.5"/>
      <ellipse cx="58" cy="30" rx="10" ry="9" fill="url(#lg-lemon)" transform="rotate(20 58 30)"/>
      <ellipse cx="55" cy="27" rx="3" ry="2" fill="#FFFACD" opacity="0.7"/>
      <ellipse cx="62" cy="24" rx="8" ry="3" fill="url(#lg-leaf-l)" transform="rotate(-25 62 24)"/>
      <path d="M36 48 Q40 52 44 48" fill="none" stroke="#4A7C9B" stroke-width="1.2" opacity="0.6"/>
    </g>
  </symbol>

  <!-- Section corner small -->
  <symbol id="corner-sm" viewBox="0 0 100 100">
    <g filter="url(#wc-soft)">
      <ellipse cx="35" cy="55" rx="16" ry="15" fill="url(#lg-lemon)" transform="rotate(-20 35 55)"/>
      <ellipse cx="55" cy="40" rx="13" ry="12" fill="url(#lg-lemon-d)" transform="rotate(15 55 40)"/>
      <ellipse cx="65" cy="30" rx="14" ry="6" fill="url(#lg-leaf-l)" transform="rotate(-30 65 30)"/>
      <ellipse cx="45" cy="35" rx="12" ry="5" fill="url(#lg-leaf)" transform="rotate(-10 45 35)"/>
      <circle cx="70" cy="25" r="3.5" fill="url(#rg-blossom)"/>
    </g>
  </symbol>
</svg>
