<svg xmlns="http://www.w3.org/2000/svg" viewBox="0 0 200 200">
  <defs>
    <radialGradient id="lemon" cx="35%" cy="30%" r="65%">
      <stop offset="0%" stop-color="#FFF6A8"/>
      <stop offset="50%" stop-color="#F5D547"/>
      <stop offset="100%" stop-color="#D4A820"/>
    </radialGradient>
    <radialGradient id="lemon2" cx="40%" cy="35%" r="60%">
      <stop offset="0%" stop-color="#FFF8B0"/>
      <stop offset="100%" stop-color="#E8C030"/>
    </radialGradient>
    <linearGradient id="leaf" x1="0" y1="0" x2="1" y2="1">
      <stop offset="0%" stop-color="#B5C88A"/>
      <stop offset="100%" stop-color="#6B7A52"/>
    </linearGradient>
    <linearGradient id="leaf2" x1="0" y1="0" x2="1" y2="0">
      <stop offset="0%" stop-color="#D0DEB0"/>
      <stop offset="100%" stop-color="#8B9A6B"/>
    </linearGradient>
  </defs>
  <g transform="scale(-1,1) translate(-200,0)">
    <ellipse cx="55" cy="95" rx="24" ry="22" fill="url(#lemon)" transform="rotate(-15 55 95)"/>
    <ellipse cx="48" cy="86" rx="9" ry="7" fill="#FFFDE0" opacity="0.8" transform="rotate(-15 48 86)"/>
    <ellipse cx="82" cy="68" rx="20" ry="18" fill="url(#lemon2)" transform="rotate(20 82 68)"/>
    <ellipse cx="28" cy="122" rx="18" ry="16" fill="url(#lemon)" transform="rotate(-30 28 122)"/>
    <path d="M92 48 Q72 78 55 95 Q38 112 28 122" stroke="#5A6B42" stroke-width="2" fill="none" opacity="0.45"/>
    <ellipse cx="102" cy="42" rx="20" ry="9" fill="url(#leaf2)" transform="rotate(-40 102 42)"/>
    <ellipse cx="74" cy="52" rx="24" ry="10" fill="url(#leaf)" transform="rotate(-20 74 52)"/>
    <ellipse cx="58" cy="74" rx="22" ry="9" fill="url(#leaf2)" transform="rotate(10 58 74)"/>
    <ellipse cx="38" cy="100" rx="20" ry="8" fill="url(#leaf)" transform="rotate(-10 38 100)"/>
    <ellipse cx="22" cy="132" rx="18" ry="8" fill="url(#leaf2)" transform="rotate(-35 22 132)"/>
    <circle cx="112" cy="36" r="6" fill="#FFF" stroke="#E8DCC8" stroke-width="0.5"/>
    <circle cx="109" cy="33" r="2" fill="#FFF8F0"/>
    <circle cx="96" cy="50" r="5" fill="#FFF" stroke="#E8DCC8" stroke-width="0.5"/>
    <circle cx="70" cy="46" r="5" fill="#FFF" stroke="#E8DCC8" stroke-width="0.5"/>
    <circle cx="118" cy="58" r="4" fill="#F8B4D9" opacity="0.7"/>
  </g>
</svg>
