<svg xmlns="http://www.w3.org/2000/svg" viewBox="0 0 300 120">
  <defs>
    <radialGradient id="lemon" cx="35%" cy="30%" r="65%">
      <stop offset="0%" stop-color="#FFF6A8"/>
      <stop offset="100%" stop-color="#E8C030"/>
    </radialGradient>
    <linearGradient id="leaf" x1="0" y1="0" x2="1" y2="0">
      <stop offset="0%" stop-color="#C5D4A0"/>
      <stop offset="100%" stop-color="#6B7A52"/>
    </linearGradient>
    <radialGradient id="rose" cx="40%" cy="35%" r="60%">
      <stop offset="0%" stop-color="#FFF"/>
      <stop offset="100%" stop-color="#F0E0D8"/>
    </radialGradient>
  </defs>
  <ellipse cx="55" cy="72" rx="22" ry="20" fill="url(#lemon)" transform="rotate(10 55 72)"/>
  <ellipse cx="88" cy="56" rx="19" ry="17" fill="url(#lemon)" transform="rotate(-5 88 56)"/>
  <ellipse cx="150" cy="82" rx="24" ry="22" fill="url(#lemon)"/>
  <ellipse cx="148" cy="74" rx="9" ry="7" fill="#FFFDE0" opacity="0.7"/>
  <ellipse cx="212" cy="56" rx="20" ry="18" fill="url(#lemon)" transform="rotate(15 212 56)"/>
  <ellipse cx="248" cy="72" rx="22" ry="20" fill="url(#lemon)" transform="rotate(-10 248 72)"/>
  <ellipse cx="118" cy="46" rx="18" ry="8" fill="url(#leaf)" transform="rotate(-15 118 46)"/>
  <ellipse cx="172" cy="40" rx="22" ry="9" fill="url(#leaf)" transform="rotate(5 172 40)"/>
  <ellipse cx="48" cy="52" rx="20" ry="8" fill="url(#leaf)" transform="rotate(-25 48 52)"/>
  <ellipse cx="255" cy="52" rx="20" ry="8" fill="url(#leaf)" transform="rotate(25 255 52)"/>
  <circle cx="128" cy="34" r="7" fill="url(#rose)"/>
  <circle cx="172" cy="28" r="6" fill="url(#rose)"/>
  <circle cx="98" cy="38" r="5" fill="#FFF" stroke="#E8DCC8" stroke-width="0.5"/>
  <circle cx="202" cy="38" r="5" fill="#FFF" stroke="#E8DCC8" stroke-width="0.5"/>
</svg>
